<svg width="448" height="448" viewBox="0 0 448 448" fill="none" xmlns="http://www.w3.org/2000/svg">
<path fill-rule="evenodd" clip-rule="evenodd" d="M255.114 136.513C235.558 143.629 223.201 161.982 224.605 182.067L225.075 189.818L217.25 188.869C188.78 185.233 163.901 172.898 142.778 152.171L132.451 141.889L129.793 149.483C124.163 166.41 127.762 184.285 139.492 196.306C145.749 202.951 144.338 203.9 133.549 199.942C129.793 198.681 126.508 197.732 126.194 198.203C125.104 199.315 128.852 213.703 131.824 219.401C135.893 227.315 144.181 235.058 153.261 239.65L160.929 243.286L151.857 243.443C143.099 243.443 142.785 243.6 143.726 246.93C146.854 257.212 159.212 268.128 172.98 272.877L182.679 276.192L174.235 281.254C161.721 288.542 147.011 292.649 132.302 292.955C125.253 293.111 119.467 293.746 119.467 294.224C119.467 295.799 138.559 304.655 149.662 308.142C182.986 318.423 222.574 313.988 252.299 296.434C273.422 283.935 294.538 259.101 304.401 235.051C309.725 222.245 315.041 198.83 315.041 187.607C315.041 180.327 315.511 179.379 324.27 170.681C329.437 165.618 334.283 160.085 335.223 158.502C336.791 155.493 336.627 155.493 328.653 158.181C315.355 162.93 313.473 162.295 320.051 155.18C324.897 150.117 330.691 140.941 330.691 138.253C330.691 137.782 328.347 138.566 325.681 139.993C322.866 141.575 316.609 143.95 311.913 145.369L303.468 148.064L295.799 142.837C291.573 139.993 285.637 136.827 282.501 135.878C274.519 133.668 262.311 133.982 255.114 136.513ZM0 0H448V448H0V0Z" fill="#010101"/>
</svg>
